<svg width="53" height="57" viewBox="0 0 53 57" fill="none" xmlns="http://www.w3.org/2000/svg">
<path d="M32.5077 12.8053L35.8893 4.63075C45.5108 8.53069 52.305 18.0385 52.305 29.1489C52.305 43.7343 40.5961 55.558 26.1525 55.558C23.1995 55.558 20.3608 55.0638 17.713 54.1528L23.8295 46.5766C24.5959 46.6809 25.3781 46.7346 26.1728 46.7346C35.7794 46.7346 43.5673 38.8703 43.5673 29.1694C43.5673 21.7254 38.9819 15.363 32.5077 12.8053ZM26.8577 11.6175C26.6305 11.6086 26.4021 11.6041 26.1728 11.6041C16.566 11.6041 8.77814 19.4683 8.77814 29.1694C8.77814 36.4999 13.2251 42.7817 19.5434 45.4138L15.5664 53.3051C6.3967 49.2012 0 39.9294 0 29.1489C0 14.5635 11.7088 2.73975 26.1525 2.73975C28.5987 2.73975 30.9664 3.0789 33.2122 3.71316L26.8577 11.6175Z" fill="white"/>
<path d="M14.9421 27.9107L37.0658 0L26.5623 25.1499L38.2136 27.9107L14.4417 57L27.8901 30.6632L14.9421 27.9107Z" fill="white"/>
</svg>
